# xmcd
#
# Track frame offsets: 
#        300
#        26774
#        45534
#        83441
#        107808
#        134047
#        182948
#        204125
#        224373
#        252811
#        288609
#        311206
#
# Disc length: 4393 seconds
#
# Revision: 3
# Processed by: cddbd v1.5.2PL0 Copyright (c) Steve Scherf et al.
# Submitted via: ExactAudioCopy v1.0b1
#
DISCID=b311250c
DTITLE=Dave Specter and Lenny Lynn - Blues Spoken Here
DYEAR=1998
DGENRE=
TTITLE0=Blues Spoken Here
TTITLE1=Why My Baby (Keeps On Botherin' Me)
TTITLE2=Senor Blues
TTITLE3=Boss Funk
TTITLE4=I Stepped in Quicksand
TTITLE5=Just a Dream
TTITLE6=City Boy Blues
TTITLE7=Kiddio
TTITLE8=Blues on My Mind
TTITLE9=Listen Here
TTITLE10=Moanin'
TTITLE11=Roll 'em Pete
EXTD=
EXTT0=
EXTT1=
EXTT2=
EXTT3=
EXTT4=
EXTT5=
EXTT6=
EXTT7=
EXTT8=
EXTT9=
EXTT10=
EXTT11=
PLAYORDER=
